<svg xmlns="http://www.w3.org/2000/svg" xmlns:xlink="http://www.w3.org/1999/xlink" width="303" height="526" viewBox="0 0 303 526">
  <defs>
    <clipPath id="clip-path">
      <rect id="Retângulo_89" data-name="Retângulo 89" width="56.506" height="50.729" fill="none"/>
    </clipPath>
    <clipPath id="clip-path-2">
      <rect id="Retângulo_90" data-name="Retângulo 90" width="72.41" height="49.094" fill="none"/>
    </clipPath>
    <clipPath id="clip-path-3">
      <rect id="Retângulo_91" data-name="Retângulo 91" width="53.787" height="47.048" fill="none"/>
    </clipPath>
    <clipPath id="clip-path-4">
      <rect id="Retângulo_92" data-name="Retângulo 92" width="66.834" height="45.499" fill="none"/>
    </clipPath>
    <clipPath id="clip-path-5">
      <rect id="Retângulo_93" data-name="Retângulo 93" width="56.585" height="53.833" fill="none"/>
    </clipPath>
    <clipPath id="clip-path-6">
      <rect id="Retângulo_98" data-name="Retângulo 98" width="44.426" height="44.408" fill="none"/>
    </clipPath>
  </defs>
  <g id="iconesMobile" transform="translate(-1868 -2979)">
    <g id="Grupo_292" data-name="Grupo 292" transform="translate(401 -124)">
      <g id="Elipse_3" data-name="Elipse 3" transform="translate(1495 3103)" fill="none" stroke="#fff" stroke-width="3">
        <ellipse cx="51" cy="50" rx="51" ry="50" stroke="none"/>
        <ellipse cx="51" cy="50" rx="49.5" ry="48.5" fill="none"/>
      </g>
      <g id="Grupo_222" data-name="Grupo 222" transform="translate(1517.973 3127.722)">
        <g id="Grupo_221" data-name="Grupo 221" clip-path="url(#clip-path)">
          <path id="Caminho_160" data-name="Caminho 160" d="M76.01,20.656c.767,3.357-.2,5.073-3.61,6.512a13.07,13.07,0,0,1-.114,2.066A4.752,4.752,0,0,1,67.31,33.05q-11.419.035-22.839,0a4.992,4.992,0,0,1-4.45-2.39,1.562,1.562,0,0,0-1.13-.565c-2.941-.047-5.884-.02-8.826-.028-1.863-.005-2.434-.575-2.435-2.436q-.007-9.6,0-19.193c0-1.923.578-2.49,2.5-2.491,3.124,0,6.249,0,9.443,0,.175-.445.318-.889.517-1.305A7.556,7.556,0,0,1,47.164.054c3.9-.083,7.8-.057,11.695-.01,3.41.041,5.425,2.4,5.013,5.905,1.837,0,3.673.132,5.484-.028,3.45-.305,6.462,1.677,5.886,6.111a4.871,4.871,0,0,1,.768,8.624M31.276,26.5h1.243c2.758,0,5.516,0,8.274,0,1.017,0,1.955.32,2.087,1.384.184,1.483,1.068,1.617,2.243,1.614,7.208-.018,14.415-.007,21.622-.013a2.56,2.56,0,0,0,1.185-.127c.366-.207.852-.661.832-.979a1.982,1.982,0,0,0-.814-1.139c-.211-.169-.636-.091-.965-.092-2.574-.006-5.148,0-7.722-.005-1.411,0-2.157-.63-2.151-1.78S57.85,23.6,59.284,23.6q5.737-.007,11.473,0c.366,0,.823.1,1.078-.083a1.88,1.88,0,0,0,.834-1.117c.027-.321-.438-.791-.8-1a2.494,2.494,0,0,0-1.184-.133c-2.942-.012-5.884.009-8.825-.025a1.7,1.7,0,0,1-1.83-1.655,1.8,1.8,0,0,1,1.751-1.885,9.315,9.315,0,0,1,.992-.016q5.24,0,10.48,0c.809,0,1.407-.255,1.391-1.164-.015-.84-.575-1.119-1.343-1.1-.294.009-.588,0-.883,0-3.714,0-7.428.007-11.142,0-1.43,0-2.266-.722-2.232-1.864.033-1.1.8-1.7,2.243-1.7,2.832-.01,5.663,0,8.495-.008a2.189,2.189,0,0,0,1.075-.123c.357-.223.83-.661.812-.982a1.963,1.963,0,0,0-.788-1.143c-.208-.171-.634-.1-.963-.1q-7.171-.007-14.341,0c-.323,0-.646.035-.957.053-.131.5-.228.926-.357,1.345a10.626,10.626,0,0,1-9.9,7.416c-1.218-.016-1.968-.67-1.986-1.729s.69-1.727,1.922-1.808a7.089,7.089,0,0,0,6.894-6.831c.089-1.392.688-1.978,2.079-1.987,1.912-.013,3.824,0,5.737-.005.772,0,1.322-.345,1.341-1.14.019-.814-.563-1.171-1.31-1.172-4.044,0-8.091-.065-12.132.058-2.314.07-3.644,1.548-3.885,3.86a1.87,1.87,0,0,1-2.168,1.933c-2.795.009-5.589,0-8.384.005-.387,0-.774.034-1.2.053Z" transform="translate(-24.722 0)" fill="#fff"/>
          <path id="Caminho_161" data-name="Caminho 161" d="M28.191,345.356a34.272,34.272,0,0,1-17.269-5.281,4.639,4.639,0,0,0-2.14-.608c-2.2-.078-4.412-.018-6.618-.033-1.395-.009-2.182-.678-2.163-1.785.018-1.08.857-1.771,2.218-1.778,2.611-.013,5.225-.068,7.832.035a5.021,5.021,0,0,1,2.315.831c4.955,3.1,10.267,5.092,16.169,5.027a28.849,28.849,0,0,0,15.406-4.949,5.365,5.365,0,0,1,3.184-.968c2.425.07,4.854,0,7.281.028,1.382.014,2.317.985,2.059,2.12a1.756,1.756,0,0,1-1.931,1.443c-2.317-.009-4.635-.041-6.95.026a4.126,4.126,0,0,0-1.935.559,34.118,34.118,0,0,1-17.458,5.333" transform="translate(-0.001 -300.55)" fill="#fff"/>
          <path id="Caminho_162" data-name="Caminho 162" d="M59.492,423.383c-.475,0-.952.022-1.426,0a1.757,1.757,0,0,1-.177-3.5,19.9,19.9,0,0,1,3.287,0,1.722,1.722,0,0,1,1.587,1.89,1.7,1.7,0,0,1-1.735,1.616c-.51.03-1.024.005-1.536.006" transform="translate(-50.408 -375.688)" fill="#fff"/>
          <path id="Caminho_163" data-name="Caminho 163" d="M423.262,423.542c-.512,0-1.025.024-1.536,0a1.715,1.715,0,0,1-1.766-1.586,1.671,1.671,0,0,1,1.447-1.889,17.857,17.857,0,0,1,3.606.02,1.591,1.591,0,0,1,1.367,1.926,1.609,1.609,0,0,1-1.691,1.526c-.474.022-.951,0-1.426.005" transform="translate(-375.82 -375.847)" fill="#fff"/>
          <path id="Caminho_164" data-name="Caminho 164" d="M143.54,451.958a14.134,14.134,0,0,1-1.78-.1A1.654,1.654,0,0,1,140.294,450a1.578,1.578,0,0,1,1.607-1.608,29.821,29.821,0,0,1,3.177,0,1.618,1.618,0,0,1,1.641,1.591,1.7,1.7,0,0,1-1.463,1.878,13.241,13.241,0,0,1-1.716.1" transform="translate(-125.544 -401.229)" fill="#fff"/>
          <path id="Caminho_165" data-name="Caminho 165" d="M311.521,448.582a15.974,15.974,0,0,1,1.642.01,1.591,1.591,0,0,1,1.494,1.5,1.489,1.489,0,0,1-1.183,1.833,17.388,17.388,0,0,1-4.014.025c-.915-.1-1.293-.888-1.221-1.8a1.565,1.565,0,0,1,1.53-1.566c.579-.058,1.168-.011,1.752-.011,0,0,0,.005,0,.008" transform="translate(-275.838 -401.417)" fill="#fff"/>
          <path id="Caminho_166" data-name="Caminho 166" d="M314.885,340.263c.291.459.76.892.832,1.383a.99.99,0,0,1-1.207,1.167,1.807,1.807,0,0,1-1.13-1.185c-.137-.738.466-1.149,1.5-1.365" transform="translate(-280.43 -304.505)" fill="#fff"/>
          <path id="Caminho_167" data-name="Caminho 167" d="M230.755,340.075c.329.433.833.825.946,1.308.179.767-.368,1.268-1.118,1.3a1.077,1.077,0,0,1-1.226-1.218c.065-.489.575-.919.886-1.376l.513-.013" transform="translate(-205.244 -304.336)" fill="#fff"/>
          <path id="Caminho_168" data-name="Caminho 168" d="M258.9,204.183c-1.207.008-1.639-.471-1.639-1.215a1.132,1.132,0,0,1,1.172-1.2,1.089,1.089,0,0,1,1.221,1.228c-.059.485-.569.916-.755,1.19" transform="translate(-230.226 -180.561)" fill="#fff"/>
          <path id="Caminho_169" data-name="Caminho 169" d="M201.4,230.8c.273-.187.7-.7,1.187-.76a1.087,1.087,0,0,1,1.233,1.216,1.131,1.131,0,0,1-1.2,1.179c-.74,0-1.229-.424-1.223-1.635" transform="translate(-180.235 -205.857)" fill="#fff"/>
        </g>
      </g>
    </g>
    <g id="Grupo_291" data-name="Grupo 291" transform="translate(405 -124)">
      <g id="Elipse_3-2" data-name="Elipse 3" transform="translate(1643 3103)" fill="none" stroke="#fff" stroke-width="3">
        <ellipse cx="51" cy="50" rx="51" ry="50" stroke="none"/>
        <ellipse cx="51" cy="50" rx="49.5" ry="48.5" fill="none"/>
      </g>
      <g id="Grupo_224" data-name="Grupo 224" transform="translate(1655.13 3128.54)">
        <g id="Grupo_223" data-name="Grupo 223" clip-path="url(#clip-path-2)">
          <path id="Caminho_170" data-name="Caminho 170" d="M11.059,142.417c-2.182,0-4.116-.043-6.046.036a1.665,1.665,0,0,0-1.122.769c-.593,1.011-.966,2.158-1.615,3.125a1.851,1.851,0,0,1-1.544.716c-.805-.216-.911-.978-.485-1.729.046-.081.061-.179.1-.262.822-1.577,1.278-3.71,2.577-4.57,1.234-.818,3.351-.319,5.08-.373.94-.029,1.881-.005,3.052-.005,0-2.108,0-4.159,0-6.21,0-2.112.153-2.266,2.234-2.267,5.332,0,10.665.026,16-.021a1.706,1.706,0,0,1,2,1.483c.338,1.463.83,2.889,1.214,4.342.206.778.212,1.582-.786,1.8-.873.195-1.253-.371-1.461-1.155-.361-1.358-.779-2.7-1.187-4.1H13.509V148.49H33.119a14.349,14.349,0,0,1-.658-2.653c-.034-.525.414-1.082.645-1.625.5.293,1.018.567,1.5.894.126.086.145.338.2.518.886,2.977.886,2.978,3.948,2.978q4.035,0,8.069,0c1.862,0,2.075.216,2.079,2.136.007,3.159,0,6.318,0,9.477v1.67c.871,0,1.57-.049,2.259.013.775.069,1.11-.281,1.242-.991a5.785,5.785,0,0,1,.385-1.352c.425-.927,1.23-1.188,1.93-.5,2.213,2.186,4.36,4.442,6.464,6.734a1.129,1.129,0,0,1-.783,1.968c-2.781.092-5.567.067-8.349.012a1.117,1.117,0,0,1-1.118-1.464c.111-.645.281-1.28.471-2.123-1.9,0-3.71-.026-5.52.028a1.1,1.1,0,0,0-.767.617,5.706,5.706,0,0,1-5.695,4.063c-2.834-.023-4.731-1.62-5.673-4.307a3.106,3.106,0,0,0-.22-.4c-2.161,0-4.33-.026-6.5.028a1.219,1.219,0,0,0-.911.613,5.715,5.715,0,0,1-5.832,4.067c-2.829-.079-4.7-1.714-5.58-4.423a.857.857,0,0,0-.15-.21c-3.5-.274-3.5-.274-3.5-3.907V142.417Zm35.361,8.574H13.39c0,3.339-.018,6.582.026,9.823,0,.356.368.707.565,1.061.308-.272.76-.486.9-.827a5.852,5.852,0,0,1,5.527-3.913c2.51-.1,4.51,1.374,5.667,3.922.156.343.6.779.921.789,2.2.069,4.409.036,6.6.036.906-2.852,2.7-4.611,5.624-4.726,2.91-.114,4.873,1.392,5.936,4.119.129.33.667.5,1.264.92ZM35.945,162.976a3.434,3.434,0,0,0,3.532,3.557,3.5,3.5,0,0,0,3.572-3.547,3.606,3.606,0,0,0-3.489-3.534,3.548,3.548,0,0,0-3.615,3.524m-19-.1a3.424,3.424,0,0,0,3.429,3.652,3.57,3.57,0,0,0,3.69-3.446,3.661,3.661,0,0,0-3.552-3.634,3.563,3.563,0,0,0-3.567,3.429m40.52,2.436-3.083-2.864-.736,2.864Z" transform="translate(0 -119.801)" fill="#fff"/>
          <path id="Caminho_171" data-name="Caminho 171" d="M606.446,18.269c2.058-1.169,4-2.322,5.991-3.366a1.921,1.921,0,0,1,1.641-.1,1.973,1.973,0,0,1,.441,1.6,26.566,26.566,0,0,1-.841,3.706c-1.058,3.626-3.27,5.97-7.294,6.247v3.684c2.011-1.151,3.891-2.292,5.84-3.3.542-.28,1.519-.448,1.879-.155.381.31.406,1.247.333,1.881a19.912,19.912,0,0,1-.695,3.161c-1.06,3.708-3.232,6.219-7.461,6.56a27.31,27.31,0,0,1-.051,3.7c-.077.557-.637,1.4-1.086,1.478-.874.148-1.261-.606-1.256-1.48.007-1.36,0-2.719,0-4.143-5.249-.315-6.894-3.985-7.9-8.236a12.506,12.506,0,0,1-.334-2.085c-.089-1.4.689-1.953,1.936-1.286,1.865,1,3.663,2.118,5.489,3.188.191.112.378.231.711.434V26.04c-5.629-.7-7.25-4.242-8.128-10.434-.184-1.3.7-1.846,1.867-1.225,2.076,1.1,4.1,2.3,6.132,3.443.6-1.754.322-2.707-1.183-3.784a6.248,6.248,0,0,1-2.19-7.975A48.707,48.707,0,0,1,603.718.743c.533-.783,1.367-1.079,2-.237a48.008,48.008,0,0,1,4.433,6.473c1.187,2.3.172,4.9-2.017,6.587-2.03,1.567-2.158,1.917-1.684,4.7M604.967,2.745c-.965,1.582-1.786,2.773-2.447,4.047a3.9,3.9,0,0,0,1.378,5.274,2.124,2.124,0,0,0,1.283.4c1.722-.191,3.529-3.219,2.758-4.8-.791-1.619-1.856-3.1-2.972-4.928M598.73,17.526c.245,2.309.736,4.388,2.846,5.452a7.062,7.062,0,0,0,2.2.321c-.158-.791-.307-1.585-.481-2.373a.646.646,0,0,0-.26-.328q-2.147-1.543-4.3-3.072m7.594,17.966c2.6.653,5.218-2.546,5.263-5.925-2.051,1.812-5.414,2.269-5.263,5.925m-7.537-6.106-.328.142c.53,2.046,1.015,4.148,3.174,5.224a7.639,7.639,0,0,0,2.072.388,11.38,11.38,0,0,0-.443-2.461,3.428,3.428,0,0,0-1.293-1.253c-1.035-.717-2.118-1.364-3.182-2.04m12.686-11.5c-1.458,1.055-2.95,2.069-4.353,3.193a2.724,2.724,0,0,0-.761,1.455c-.3,1.281.193,1.689,1.415,1.256,2.669-.946,3.391-3.224,3.7-5.9" transform="translate(-542.127 0)" fill="#fff"/>
          <path id="Caminho_172" data-name="Caminho 172" d="M350.817,228.7c-.813.673-1.236,1.318-1.7,1.347-1.1.068-1.327-.962-1.333-1.756a2,2,0,0,1,.973-1.17,13.211,13.211,0,0,1,2.056,1.579" transform="translate(-316.545 -206.718)" fill="#fff"/>
        </g>
      </g>
    </g>
    <g id="Grupo_290" data-name="Grupo 290" transform="translate(105 72)">
      <g id="Elipse_3-3" data-name="Elipse 3" transform="translate(1791 3103)" fill="none" stroke="#fff" stroke-width="3">
        <ellipse cx="51" cy="50" rx="51" ry="50" stroke="none"/>
        <ellipse cx="51" cy="50" rx="49.5" ry="48.5" fill="none"/>
      </g>
      <g id="Grupo_226" data-name="Grupo 226" transform="translate(1812.679 3126.525)">
        <g id="Grupo_225" data-name="Grupo 225" clip-path="url(#clip-path-3)">
          <path id="Caminho_173" data-name="Caminho 173" d="M78.854,8.334c0-1.441,0-2.7,0-3.956A.915.915,0,0,0,77.8,3.364q-6.928,0-13.857,0c-.831,0-1.068.473-1.062,1.221.016,2.274.01,4.548,0,6.822,0,1.3-.668,2.067-1.726,2.035-1.018-.031-1.624-.775-1.627-2.029-.007-2.379-.015-4.758,0-7.137A4.163,4.163,0,0,1,63.773.012q7.086-.027,14.172,0A4.169,4.169,0,0,1,82.21,4.249c.016,1.293,0,2.586,0,4.028.339-.193.581-.34.83-.471a1.628,1.628,0,0,1,2.225.49,1.53,1.53,0,0,1-.255,2.176c-1.186.975-2.449,1.859-3.708,2.739a1.552,1.552,0,0,1-1.938-.218q-1.472-1.1-2.931-2.209c-1-.766-1.2-1.674-.581-2.517.6-.811,1.454-.894,2.5-.243l.5.311" transform="translate(-53.632 0.001)" fill="#fff"/>
          <path id="Caminho_174" data-name="Caminho 174" d="M274.089,345.515c-.34.233-.5.357-.673.457a1.658,1.658,0,0,1-2.391-.45,1.638,1.638,0,0,1,.476-2.31c1.021-.794,2.072-1.549,3.1-2.33a1.788,1.788,0,0,1,2.4.043c.942.725,1.9,1.426,2.846,2.148,1.008.771,1.221,1.671.614,2.516s-1.476.915-2.582.217c-.084-.053-.175-.1-.433-.236,0,1.056,0,2.009,0,2.962a4.218,4.218,0,0,1-4.538,4.5q-6.824.007-13.648,0a4.2,4.2,0,0,1-4.494-4.436q-.011-3.516,0-7.033c.005-1.2.7-1.981,1.709-1.958a1.721,1.721,0,0,1,1.642,1.919c.012,2.239,0,4.478.005,6.718,0,1.247.173,1.431,1.368,1.432,4.409.005,8.819-.014,13.228.015.977.006,1.433-.33,1.379-1.343-.046-.87-.009-1.745-.009-2.828" transform="translate(-229.54 -305.983)" fill="#fff"/>
          <path id="Caminho_175" data-name="Caminho 175" d="M7.56,183.071c-1.154,0-2.309.024-3.462-.006a4.173,4.173,0,0,1-4.073-4.107c-.031-1.748-.034-3.5,0-5.245a4.153,4.153,0,0,1,4.106-4.07c2.308-.032,4.617-.036,6.925,0a4.152,4.152,0,0,1,4.073,4.1c.032,1.713.026,3.427,0,5.14a4.18,4.18,0,0,1-4.214,4.181c-1.119.016-2.238,0-3.358,0m-.087-3.356c1.013,0,2.026-.025,3.038.007.874.028,1.3-.314,1.276-1.224-.029-1.431-.025-2.863,0-4.294.014-.826-.317-1.227-1.173-1.219-2.025.019-4.051.016-6.076,0-.776-.006-1.172.312-1.166,1.116q.018,2.252,0,4.5c-.006.8.394,1.127,1.169,1.113.977-.018,1.955,0,2.933,0" transform="translate(0 -152.827)" fill="#fff"/>
          <path id="Caminho_176" data-name="Caminho 176" d="M202.81,183.072c-1.154,0-2.309.021-3.462-.005a4.171,4.171,0,0,1-4.1-4.075c-.036-1.748-.032-3.5,0-5.245a4.153,4.153,0,0,1,4.075-4.1q3.462-.056,6.925,0a4.152,4.152,0,0,1,4.1,4.072c.037,1.748.034,3.5,0,5.245a4.172,4.172,0,0,1-4.179,4.108c-1.119.019-2.238,0-3.358,0m-.07-3.356c1.013,0,2.026-.019,3.038.006.823.02,1.236-.309,1.224-1.167q-.03-2.2,0-4.4c.012-.856-.4-1.179-1.221-1.17q-2.985.032-5.971,0c-.823-.009-1.236.309-1.224,1.167q.031,2.2,0,4.4c-.012.857.4,1.191,1.221,1.17.977-.025,1.955-.006,2.933-.006" transform="translate(-175.892 -152.828)" fill="#fff"/>
          <path id="Caminho_177" data-name="Caminho 177" d="M398.157,161.311a7.583,7.583,0,0,1,7.573,7.492,7.56,7.56,0,1,1-15.119-.079,7.588,7.588,0,0,1,7.546-7.413m-.011,11.756a4.2,4.2,0,1,0-4.155-4.224,4.152,4.152,0,0,0,4.155,4.224" transform="translate(-351.944 -145.342)" fill="#fff"/>
          <path id="Caminho_178" data-name="Caminho 178" d="M61.439,339.525a1.677,1.677,0,1,1-1.748,1.593,1.746,1.746,0,0,1,1.748-1.593" transform="translate(-53.78 -305.913)" fill="#fff"/>
          <path id="Caminho_179" data-name="Caminho 179" d="M63.042,409.092a1.666,1.666,0,1,1-1.68-1.661,1.733,1.733,0,0,1,1.68,1.661" transform="translate(-53.799 -367.098)" fill="#fff"/>
        </g>
      </g>
    </g>
    <g id="Grupo_289" data-name="Grupo 289" transform="translate(110 72)">
      <g id="Elipse_3-4" data-name="Elipse 3" transform="translate(1938 3103)" fill="none" stroke="#fff" stroke-width="3">
        <ellipse cx="51" cy="50" rx="51" ry="50" stroke="none"/>
        <ellipse cx="51" cy="50" rx="49.5" ry="48.5" fill="none"/>
      </g>
      <g id="Grupo_228" data-name="Grupo 228" transform="translate(1956.618 3132.323)">
        <g id="Grupo_227" data-name="Grupo 227" clip-path="url(#clip-path-4)">
          <path id="Caminho_180" data-name="Caminho 180" d="M136.826,34.906c0-3.033-.012-5.941,0-8.85.014-2.741.013-5.483.109-8.221a2.621,2.621,0,0,0-1.085-2.434c-2.43-1.9-4.77-3.924-7.162-5.877a2.09,2.09,0,0,0-1.111-.565c-3.431-.043-6.864-.026-10.4-.026V35c.8,0,1.609,0,2.417,0,.856,0,1.459.344,1.484,1.271.026.992-.581,1.385-1.5,1.385q-8.1,0-16.2,0c-.937,0-1.574-.442-1.555-1.361s.685-1.313,1.612-1.308c3.091.015,6.182,0,9.274,0h1.5V2.759H82.372q0,3.511,0,7a11.253,11.253,0,0,1-.022,1.434c-.1.808-.522,1.553-1.4,1.341a2.386,2.386,0,0,1-1.3-1.308,4.812,4.812,0,0,1-.07-1.806c0-2.393-.007-4.785,0-7.178C79.584.394,79.96,0,81.755,0q16.588,0,33.176,0c1.767,0,2.09.339,2.11,2.159.011,1,.045,2-.01,3-.047.852.26,1.129,1.121,1.117,3.178-.044,6.358-.071,9.533.021a4.207,4.207,0,0,1,2.339.819q4.4,3.477,8.638,7.163a2.964,2.964,0,0,1,.927,1.972c.045,6.394,0,12.789-.036,19.184-.01,1.857-.378,2.2-2.216,2.206-.566,0-1.132,0-1.7,0-.92,0-1.531-.375-1.529-1.367,0-.932.595-1.279,1.451-1.3.342-.01.685-.036,1.264-.068" transform="translate(-72.774 0)" fill="#fff"/>
          <path id="Caminho_181" data-name="Caminho 181" d="M553.4,154.582c0-1.7.02-3.391-.007-5.086-.019-1.188.5-1.771,1.711-1.76,2.088.019,4.177,0,6.265.007.217,0,.506-.065.64.046a51.485,51.485,0,0,1,4.692,4.077c.51.541.47,1.69.506,2.569.071,1.736.037,3.477.016,5.216-.018,1.48-.485,1.934-1.964,1.938q-5.025.013-10.05,0c-1.335-.005-1.794-.465-1.806-1.789-.016-1.739,0-3.478,0-5.216m2.782-4.18v8.412h8.252c0-1.42,0-2.757,0-4.095,0-1.291-2.278-4.183-3.558-4.287-1.54-.126-3.1-.03-4.694-.03" transform="translate(-506.407 -135.182)" fill="#fff"/>
          <path id="Caminho_182" data-name="Caminho 182" d="M191.152,398.134a6,6,0,0,1-5.938,6.12,6.2,6.2,0,0,1-6.292-6.108,6.3,6.3,0,0,1,6.218-6.105,6.111,6.111,0,0,1,6.013,6.093m-9.449.022a3.449,3.449,0,0,0,3.359,3.431,3.5,3.5,0,0,0,3.42-3.393,3.39,3.39,0,0,0-6.779-.039" transform="translate(-163.731 -358.757)" fill="#fff"/>
          <path id="Caminho_183" data-name="Caminho 183" d="M577.66,404.258a6.059,6.059,0,0,1-6.176-6.037,6.095,6.095,0,1,1,12.188-.027,6.055,6.055,0,0,1-6.012,6.064m3.282-6.042a3.306,3.306,0,0,0-3.327-3.4,3.434,3.434,0,0,0-3.459,3.326,3.573,3.573,0,0,0,3.39,3.448,3.388,3.388,0,0,0,3.4-3.373" transform="translate(-522.966 -358.759)" fill="#fff"/>
          <path id="Caminho_184" data-name="Caminho 184" d="M74.755,164.223c-2.521,0-5.041-.011-7.562.005-.971.006-1.846-.244-1.883-1.329-.041-1.194.9-1.443,1.9-1.443q7.692-.005,15.384,0c.94,0,1.865.221,1.886,1.33.022,1.169-.876,1.447-1.9,1.441-2.608-.014-5.215,0-7.822,0" transform="translate(-59.764 -147.746)" fill="#fff"/>
          <path id="Caminho_185" data-name="Caminho 185" d="M9.671,308.1c2.52,0,5.039.011,7.559-.006,1.019-.007,1.932.23,1.93,1.409,0,1.106-.9,1.364-1.852,1.364q-7.754,0-15.508-.005c-.939,0-1.834-.26-1.8-1.4.035-1.1.88-1.365,1.85-1.361,2.606.009,5.213,0,7.819,0" transform="translate(0 -281.938)" fill="#fff"/>
          <path id="Caminho_186" data-name="Caminho 186" d="M42.8,237.071c-2.569,0-5.137.012-7.706-.006-.959-.007-1.941-.135-1.895-1.419.045-1.254,1-1.344,1.975-1.338q7.51.047,15.02.088a5.858,5.858,0,0,1,.652.024c.8.1,1.468.385,1.456,1.335-.013.978-.643,1.384-1.536,1.4-1.654.022-3.309,0-4.963,0q-1.5,0-3,0Z" transform="translate(-30.381 -214.414)" fill="#fff"/>
          <path id="Caminho_187" data-name="Caminho 187" d="M82.774,358.895c1.067,0,1.89-.019,2.711.005a1.314,1.314,0,0,1,0,2.628c-1.345.028-2.692.013-4.038.01a1.323,1.323,0,0,1-1.418-1.386c-.071-1.6-.07-3.211-.006-4.813a1.3,1.3,0,0,1,1.386-1.4c.926.019,1.307.645,1.35,1.449.059,1.114.015,2.234.015,3.512" transform="translate(-73.186 -323.885)" fill="#fff"/>
        </g>
      </g>
    </g>
    <g id="Grupo_287" data-name="Grupo 287" transform="translate(-190 263)">
      <g id="Elipse_3-5" data-name="Elipse 3" transform="translate(2086 3103)" fill="none" stroke="#fff" stroke-width="3">
        <ellipse cx="51" cy="50" rx="51" ry="50" stroke="none"/>
        <ellipse cx="51" cy="50" rx="49.5" ry="48.5" fill="none"/>
      </g>
      <g id="Grupo_230" data-name="Grupo 230" transform="translate(2115.76 3126.169)">
        <g id="Grupo_229" data-name="Grupo 229" clip-path="url(#clip-path-5)">
          <path id="Caminho_188" data-name="Caminho 188" d="M.219,45.65l1.42-1L2.7,45.821V42.675c-.057-.038-.115-.113-.174-.113C-.13,42.53-.1,42.68.062,39.958c.213-3.528.606-7.049.991-10.566.538-4.92,1.141-9.833,1.716-14.749.159-1.359.318-2.719.474-4.044-.127-.082-.185-.152-.249-.156-2.05-.137-2.05-.136-2.05-2.157,0-1.121,0-2.242,0-3.363.006-1.287.164-1.437,1.507-1.449.37,0,.741,0,1.229,0,0-.842.011-1.592,0-2.342S4.026-.005,4.84,0c1.672.01,3.344,0,5.017,0,.751,0,1.119.35,1.117,1.064,0,.755,0,1.51,0,2.408H34.824c1.588,0,1.688.1,1.69,1.6,0,2.02,0,4.04,0,6.132H34.721V5.461l-23.3,5.258,3.11,26.606h6.809c2.432,0,4.865,0,7.3,0,1.317,0,1.48.17,1.487,1.469q.006,1.139,0,2.278c-.008,1.287-.169,1.442-1.5,1.455-.371,0-.742,0-1.172,0v1.74c3.106-.316,5.451,1.183,7.5,3.294l.2-.216q-1.072-3.509-2.144-7.017c-.594-1.937-1.154-3.884-1.81-5.8-.307-.9-.053-1.382.856-1.638.289-.082.559-.239.852-.295a.939.939,0,0,0,.884-1.124c-.058-1.475-.018-2.953-.018-4.385-.139-.083-.2-.15-.261-.151-2.576-.038-2.484.147-2.479-2.511,0-2.921-.222-2.9,2.792-2.67,2.366.182,3.991-.472,5.057-2.47a1.775,1.775,0,0,1,2.072-1.04,2.288,2.288,0,0,0,.108-.533c-.137-2.5.58-2.08,2.217-2.085.494,0,.988,0,1.482,0,1.691,0,1.764.069,1.778,1.628,0,.284,0,.568,0,.959,1.443-.268,2.056.686,2.576,1.576A3.613,3.613,0,0,0,53.2,21.721a14.86,14.86,0,0,1,2.277-.019c.682,0,1.089.3,1.1.966.015,1.085.013,2.17,0,3.255-.007.666-.4.98-1.083.982H53.854c0,1.722-.014,3.406.023,5.09,0,.165.3.374.5.474a6.167,6.167,0,0,0,1.067.368c1,.272,1.28.777.955,1.784-1.236,3.822-2.385,7.67-3.565,11.508a1.833,1.833,0,0,0-.069,1.069l2.216-2.539,1.491,1.054a24.465,24.465,0,0,1-2.685,2.829,4.492,4.492,0,0,1-6.2-.634c-2.314-2.533-5.215-2.572-7.5-.1a5.006,5.006,0,0,1-7.334.158c-1.722-1.636-3.711-2.452-6.078-1.691a8.057,8.057,0,0,0-2.735,1.667,5.083,5.083,0,0,1-7.584-.328,4.565,4.565,0,0,0-7.027.011,4.875,4.875,0,0,1-7.822-.311C1.123,46.78.7,46.269.219,45.65m50.175,2.181L54.55,34.387c-2.748-.947-5.342-1.972-8.023-2.711a9.165,9.165,0,0,0-4.445-.316c-3.049.782-5.979,1.987-9.008,3.038l4.153,13.387a16.442,16.442,0,0,0,1.567-1.235c3.044-3.136,7.171-3.064,10.171.177a11.836,11.836,0,0,0,1.429,1.1M4.588,42.581c0,1.394,0,2.658,0,3.923,0,1.12.474,1.5,1.6,1.16a2.974,2.974,0,0,0,1.385-.873,6.718,6.718,0,0,1,10.343-.15,3.061,3.061,0,0,0,4.606.176,16.05,16.05,0,0,1,1.824-1.459c1.355-.861,1.487-1.12,1.054-2.778Zm47.4-15.606H35.662v4.58c2.811-.565,5.221-2.115,8.2-2.106,2.951.009,5.347,1.583,8.129,2.094ZM7.453,28.27c.945-.932,1.854-1.8,2.729-2.7.372-.383.972-.845.949-1.244a8,8,0,0,0-.695-3.538,18.876,18.876,0,0,0-3.093-3.2c-1,1-1.828,1.887-2.735,2.7-1.319,1.176-.776,2.764-1.1,4.159-.026.113.193.3.324.42,1.153,1.094,2.312,2.182,3.615,3.41m20.8,10.859H1.9v1.609H28.255ZM2.12,37.274H12.673c-.1-.613.01-1.346-.322-1.68-1.627-1.638-3.372-3.17-5.132-4.792-1.406,1.348-2.778,2.745-4.248,4.04a2.333,2.333,0,0,0-.851,2.431m9.7-31.992H2.856v3.38h8.962ZM27.069,5.4l-.036-.121H13.751V8.437L27.069,5.4M48.121,21.659l.187-.317c-.615-.46-1.23-1.3-1.844-1.3-1.521,0-1.864-.487-1.74-1.847.022-.241,0-.486,0-.772H42.9c0,.523-.006.985,0,1.447.011.7-.333,1.172-1.079,1.076-1.427-.184-1.824.783-2.42,1.716ZM9.388,10.474H5.261c-1.271,2.426.614,3.462,2.058,4.712,1.528-1.256,3.3-2.341,2.069-4.712M3.179,26.9l-.636,5.555,3.338-3.052-2.7-2.5m8.963,5.727-.662-5.592-2.555,2.47,3.217,3.122M9.1,1.792H5.57V3.4H9.1ZM42.819,23.484H40.226v1.644h2.593Zm4.573.026H44.775v1.608h2.617Zm-12.749-.018H32.937v1.6h1.705ZM36.6,25.123h1.682V23.477H36.6ZM51.057,23.5h-1.7V25.13h1.7Zm3.621-.012H53V25.13h1.682ZM4.557,15.046l-.285,2.808L5.947,16.47l-1.39-1.424m5.876,3.062L10.1,15.317l-1.34,1.129,1.677,1.662" transform="translate(0 0)" fill="#fff"/>
          <path id="Caminho_189" data-name="Caminho 189" d="M2.41,541.6l1.452-1c.509.631.972,1.237,1.469,1.814,1.461,1.7,3.171,1.72,4.684.082a6.6,6.6,0,0,1,9.866-.111c1.648,1.728,3.33,1.775,5.091.143a7.722,7.722,0,0,1,11.042-.007q2.64,2.453,5.092-.128a6.6,6.6,0,0,1,9.866.1c1.51,1.64,3.229,1.624,4.688-.062.5-.578.957-1.19,1.48-1.845l1.459,1.054c-.649.794-1.209,1.572-1.865,2.267a4.68,4.68,0,0,1-7.053-.146,4.7,4.7,0,0,0-5.176-1.542,5.893,5.893,0,0,0-2.083,1.425,5.069,5.069,0,0,1-7.5.27c-2.841-2.624-5.991-2.627-8.824-.008a5.02,5.02,0,0,1-7.56-.35,4.524,4.524,0,0,0-6.94-.022,4.917,4.917,0,0,1-7.976-.36c-.365-.5-.758-.99-1.207-1.573" transform="translate(-2.193 -491.618)" fill="#fff"/>
          <path id="Caminho_190" data-name="Caminho 190" d="M401.4,417.6a2.738,2.738,0,1,1-2.8-2.555,2.7,2.7,0,0,1,2.8,2.555m-1.433.067c-.595-.42-.964-.874-1.236-.825a1.362,1.362,0,0,0-.9.821c-.056.2.494.772.788.784.352.014.723-.391,1.352-.779" transform="translate(-360.323 -377.717)" fill="#fff"/>
          <path id="Caminho_191" data-name="Caminho 191" d="M523.092,417.613a2.735,2.735,0,1,1-2.8-2.565,2.7,2.7,0,0,1,2.8,2.565m-2.744-1.207c-.424.58-.889.945-.832,1.206.075.341.563.6.874.894.29-.278.807-.552.812-.834.006-.335-.43-.676-.854-1.266" transform="translate(-471.074 -377.72)" fill="#fff"/>
          <path id="Caminho_192" data-name="Caminho 192" d="M618.212,375.8l-.456.163" transform="translate(-562.199 -342.007)" fill="#fff"/>
          <path id="Caminho_193" data-name="Caminho 193" d="M618.212,375.8l-.456.163" transform="translate(-562.199 -342.007)" fill="none"/>
          <path id="Caminho_194" data-name="Caminho 194" d="M351.97,375.968l-.456-.163" transform="translate(-319.901 -342.007)" fill="#fff"/>
          <path id="Caminho_195" data-name="Caminho 195" d="M351.97,375.968l-.456-.163" transform="translate(-319.901 -342.007)" fill="none"/>
        </g>
      </g>
    </g>
    <g id="Grupo_288" data-name="Grupo 288" transform="translate(-190 263)">
      <g id="Elipse_3-6" data-name="Elipse 3" transform="translate(2234 3103)" fill="none" stroke="#fff" stroke-width="3">
        <ellipse cx="51" cy="50" rx="51" ry="50" stroke="none"/>
        <ellipse cx="51" cy="50" rx="49.5" ry="48.5" fill="none"/>
      </g>
      <g id="Grupo_233" data-name="Grupo 233" transform="translate(2262.488 3130.883)">
        <path id="Caminho_196" data-name="Caminho 196" d="M1.434,2H18.558V3.368H2.865V42.08H41.522V26.392h1.423v17.1H1.434ZM0,.568V44.927H44.345v-20H40.087V40.618H4.292V4.808H19.959V.568Z" transform="translate(0 -0.52)" fill="#fff"/>
        <g id="Grupo_232" data-name="Grupo 232">
          <g id="Grupo_231" data-name="Grupo 231" clip-path="url(#clip-path-6)">
            <path id="Caminho_197" data-name="Caminho 197" d="M67.57,17.216h1c4.571,0,9.143.007,13.714-.014a1.6,1.6,0,0,0,1.033-.329c3.59-3.548,7.152-7.126,10.889-10.866-.732-.676-1.451-1.334-2.163-2a2.193,2.193,0,0,1-.687-2.58A2.24,2.24,0,0,1,93.7,0q5.871,0,11.742,0h.755c.02.324.049.582.049.841,0,3.884-.01,7.768.01,11.651a2.3,2.3,0,0,1-1.387,2.38,2.208,2.208,0,0,1-2.657-.689c-.637-.672-1.284-1.334-1.981-2.057-.249.217-.452.373-.631.552-3.361,3.357-6.73,6.707-10.063,10.091a1.941,1.941,0,0,0-.484,1.235c-.034,4.541-.021,9.082-.021,13.623v1.039H67.57Zm15.745,7.1H73.235V18.7H69.007V37.238H87.535V18.693h-4.22Zm5.7-3.353.259.157,10.98-11c.986,1.013,1.918,2.023,2.917,2.962.28.263.847.526,1.121.409a1.387,1.387,0,0,0,.505-1.086c.039-3.227.022-6.454.022-9.682v-1.3h-.887c-3.317,0-6.635-.02-9.951.024a4.079,4.079,0,0,0-1.3.509,4.427,4.427,0,0,0,.566,1.2c.922,1,1.914,1.937,3,3.024L85.213,17.222h3.8ZM74.735,22.9h1.426V20.133h1.416v2.75h1.447V20.146H80.47V22.9H81.8V18.718H74.735Z" transform="translate(-61.833 0)" fill="#fff"/>
            <path id="Caminho_198" data-name="Caminho 198" d="M257.255,134.33l.888-.939L259,134.6l-.954.728-.786-1" transform="translate(-235.413 -122.066)" fill="#fff"/>
            <path id="Caminho_199" data-name="Caminho 199" d="M367.449,244.982l-.739-.764.985-1.084,1.031,1.056-1.278.792" transform="translate(-335.575 -222.491)" fill="#fff"/>
            <path id="Caminho_200" data-name="Caminho 200" d="M282.6,110l.874.974-1,.811-.807-.956L282.6,110" transform="translate(-257.747 -100.658)" fill="#fff"/>
            <path id="Caminho_201" data-name="Caminho 201" d="M390.952,222.622l-.95-1.013,1.011-.86.87,1-.931.871" transform="translate(-356.89 -202.007)" fill="#fff"/>
            <path id="Caminho_202" data-name="Caminho 202" d="M330.707,62.759l.717-.745,1,1.086-1.089.824-.627-1.164" transform="translate(-302.629 -56.749)" fill="#fff"/>
            <path id="Caminho_203" data-name="Caminho 203" d="M306.778,88.455l-1.032,1.022-.85-1.108,1.113-.7.769.786" transform="translate(-279.01 -80.226)" fill="#fff"/>
            <path id="Caminho_204" data-name="Caminho 204" d="M440.886,173.23l1.015.873-1.172.9-.708-1.022.865-.753" transform="translate(-402.662 -158.522)" fill="#fff"/>
            <path id="Caminho_205" data-name="Caminho 205" d="M414.72,199.174l-.97-1.1,1.209-.76.73.82-.968,1.043" transform="translate(-378.622 -180.559)" fill="#fff"/>
            <rect id="Retângulo_94" data-name="Retângulo 94" width="7.076" height="1.352" transform="translate(17.217 31.609)" fill="#fff"/>
            <rect id="Retângulo_95" data-name="Retângulo 95" width="1.328" height="1.323" transform="translate(17.205 34.498)" fill="#fff"/>
            <rect id="Retângulo_96" data-name="Retângulo 96" width="1.336" height="1.32" transform="translate(20.087 34.479)" fill="#fff"/>
            <rect id="Retângulo_97" data-name="Retângulo 97" width="1.354" height="1.306" transform="translate(22.916 34.501)" fill="#fff"/>
          </g>
        </g>
      </g>
    </g>
    <rect id="Retângulo_99" data-name="Retângulo 99" width="34" height="4" transform="translate(2004 3029)" fill="#fff"/>
    <rect id="Retângulo_136" data-name="Retângulo 136" width="34" height="4" transform="translate(2004 3223)" fill="#fff"/>
    <rect id="Retângulo_142" data-name="Retângulo 142" width="34" height="4" transform="translate(2004 3416)" fill="#fff"/>
    <rect id="Retângulo_133" data-name="Retângulo 133" width="294" height="4" transform="translate(1877 3152)" fill="#fff"/>
    <rect id="Retângulo_139" data-name="Retângulo 139" width="294" height="4" transform="translate(1877 3346)" fill="#fff"/>
    <rect id="Retângulo_131" data-name="Retângulo 131" width="19" height="4" transform="translate(2152 3029)" fill="#fff"/>
    <rect id="Retângulo_135" data-name="Retângulo 135" width="16" height="4" transform="translate(1877 3221)" fill="#fff"/>
    <rect id="Retângulo_141" data-name="Retângulo 141" width="16" height="4" transform="translate(1877 3416)" fill="#fff"/>
    <rect id="Retângulo_137" data-name="Retângulo 137" width="16" height="4" transform="translate(2155 3221)" fill="#fff"/>
    <rect id="Retângulo_132" data-name="Retângulo 132" width="127" height="4" transform="translate(2171 3029) rotate(90)" fill="#fff"/>
    <rect id="Retângulo_138" data-name="Retângulo 138" width="127" height="4" transform="translate(2171 3223) rotate(90)" fill="#fff"/>
    <rect id="Retângulo_134" data-name="Retângulo 134" width="71" height="4" transform="translate(1881 3154) rotate(90)" fill="#fff"/>
    <rect id="Retângulo_140" data-name="Retângulo 140" width="71" height="4" transform="translate(1881 3349) rotate(90)" fill="#fff"/>
    <text id="Cultivo" transform="translate(1947 3115)" fill="#fff" font-size="16" font-family="Montserrat-SemiBold, Montserrat" font-weight="600"><tspan x="-29.032" y="0">Cultivo</tspan></text>
    <text id="Colheita" transform="translate(2100 3115)" fill="#fff" font-size="16" font-family="Montserrat-SemiBold, Montserrat" font-weight="600"><tspan x="-34.184" y="0">Colheita</tspan></text>
    <text id="Processamento" transform="translate(1947 3308)" fill="#fff" font-size="16" font-family="Montserrat-SemiBold, Montserrat" font-weight="600"><tspan x="-64.112" y="0">Processamento</tspan></text>
    <text id="Transporte" transform="translate(2099 3306)" fill="#fff" font-size="16" font-family="Montserrat-SemiBold, Montserrat" font-weight="600"><tspan x="-44.816" y="0">Transporte</tspan></text>
    <text id="Terminal_Marítimo" data-name="Terminal Marítimo" transform="translate(1944 3501)" fill="#fff" font-size="16" font-family="Montserrat-SemiBold, Montserrat" font-weight="600"><tspan x="-75.72" y="0">Terminal Marítimo</tspan></text>
    <text id="Exportação" transform="translate(2100 3501)" fill="#fff" font-size="16" font-family="Montserrat-SemiBold, Montserrat" font-weight="600"><tspan x="-46.984" y="0">Exportação</tspan></text>
  </g>
</svg>
