<svg xmlns="http://www.w3.org/2000/svg" xmlns:xlink="http://www.w3.org/1999/xlink" width="28.877" height="28.874" viewBox="0 0 28.877 28.874">
  <defs>
    <clipPath id="clip-path">
      <rect width="28.877" height="28.874" fill="none"/>
    </clipPath>
  </defs>
  <g id="Repetição_de_grade_1" data-name="Repetição de grade 1" clip-path="url(#clip-path)">
    <g transform="translate(-1736.088 -4126.063)">
      <path id="Icon_ionic-ios-send" data-name="Icon ionic-ios-send" d="M32.469,4.567,4.861,16.6a.633.633,0,0,0,.023,1.151l7.468,4.219a1.2,1.2,0,0,0,1.376-.135L28.453,9.14c.1-.083.331-.241.421-.15s-.053.323-.135.421L16,23.76a1.2,1.2,0,0,0-.12,1.436l4.881,7.829a.635.635,0,0,0,1.143-.015L33.319,5.4A.633.633,0,0,0,32.469,4.567Z" transform="translate(1731.585 4121.561)" fill="#707070"/>
    </g>
  </g>
</svg>
